<mxfile host="app.diagrams.net" agent="Mozilla/5.0 (Macintosh; Intel Mac OS X 10_15_7) AppleWebKit/537.36 (KHTML, like Gecko) Chrome/133.0.0.0 Safari/537.36" version="26.0.11">
  <diagram name="StrÃ¡nka-1" id="s5aHSjJk-PUsHkDQ7lOo">
    <mxGraphModel dx="489" dy="1436" grid="1" gridSize="10" guides="1" tooltips="1" connect="1" arrows="1" fold="1" page="1" pageScale="1" pageWidth="827" pageHeight="1169" math="0" shadow="0">
      <root>
        <mxCell id="0" />
        <mxCell id="1" parent="0" />
        <mxCell id="kXPvCvS7IW2mLLLtG32y-2" value="l" style="rounded=0;whiteSpace=wrap;html=1;" vertex="1" parent="1">
          <mxGeometry x="399" y="20" width="20" height="20" as="geometry" />
        </mxCell>
        <mxCell id="kXPvCvS7IW2mLLLtG32y-3" value="y" style="rounded=0;whiteSpace=wrap;html=1;" vertex="1" parent="1">
          <mxGeometry x="399" y="40" width="20" height="20" as="geometry" />
        </mxCell>
        <mxCell id="kXPvCvS7IW2mLLLtG32y-4" value="i" style="rounded=0;whiteSpace=wrap;html=1;" vertex="1" parent="1">
          <mxGeometry x="399" y="-60" width="20" height="20" as="geometry" />
        </mxCell>
        <mxCell id="kXPvCvS7IW2mLLLtG32y-5" value="r" style="rounded=0;whiteSpace=wrap;html=1;" vertex="1" parent="1">
          <mxGeometry x="399" y="-40" width="20" height="20" as="geometry" />
        </mxCell>
        <mxCell id="kXPvCvS7IW2mLLLtG32y-6" value="e" style="rounded=0;whiteSpace=wrap;html=1;" vertex="1" parent="1">
          <mxGeometry x="399" y="-20" width="20" height="20" as="geometry" />
        </mxCell>
        <mxCell id="kXPvCvS7IW2mLLLtG32y-7" value="f" style="rounded=0;whiteSpace=wrap;html=1;" vertex="1" parent="1">
          <mxGeometry x="399" width="20" height="20" as="geometry" />
        </mxCell>
        <mxCell id="kXPvCvS7IW2mLLLtG32y-8" value="f" style="rounded=0;whiteSpace=wrap;html=1;" vertex="1" parent="1">
          <mxGeometry x="399" y="-80" width="20" height="20" as="geometry" />
        </mxCell>
        <mxCell id="kXPvCvS7IW2mLLLtG32y-9" value="11" style="rounded=0;whiteSpace=wrap;html=1;" vertex="1" parent="1">
          <mxGeometry x="419" y="20" width="20" height="20" as="geometry" />
        </mxCell>
        <mxCell id="kXPvCvS7IW2mLLLtG32y-10" value="24" style="rounded=0;whiteSpace=wrap;html=1;" vertex="1" parent="1">
          <mxGeometry x="419" y="40" width="20" height="20" as="geometry" />
        </mxCell>
        <mxCell id="kXPvCvS7IW2mLLLtG32y-11" value="8" style="rounded=0;whiteSpace=wrap;html=1;" vertex="1" parent="1">
          <mxGeometry x="419" y="-60" width="20" height="20" as="geometry" />
        </mxCell>
        <mxCell id="kXPvCvS7IW2mLLLtG32y-12" value="17" style="rounded=0;whiteSpace=wrap;html=1;" vertex="1" parent="1">
          <mxGeometry x="419" y="-40" width="20" height="20" as="geometry" />
        </mxCell>
        <mxCell id="kXPvCvS7IW2mLLLtG32y-13" value="4" style="rounded=0;whiteSpace=wrap;html=1;" vertex="1" parent="1">
          <mxGeometry x="419" y="-20" width="20" height="20" as="geometry" />
        </mxCell>
        <mxCell id="kXPvCvS7IW2mLLLtG32y-14" value="5" style="rounded=0;whiteSpace=wrap;html=1;" vertex="1" parent="1">
          <mxGeometry x="419" width="20" height="20" as="geometry" />
        </mxCell>
        <mxCell id="kXPvCvS7IW2mLLLtG32y-15" value="5" style="rounded=0;whiteSpace=wrap;html=1;" vertex="1" parent="1">
          <mxGeometry x="419" y="-80" width="20" height="20" as="geometry" />
        </mxCell>
        <mxCell id="kXPvCvS7IW2mLLLtG32y-16" style="edgeStyle=orthogonalEdgeStyle;rounded=0;orthogonalLoop=1;jettySize=auto;html=1;exitX=1;exitY=0.5;exitDx=0;exitDy=0;entryX=0;entryY=0.5;entryDx=0;entryDy=0;strokeColor=#6c8ebf;align=center;verticalAlign=middle;fontFamily=Helvetica;fontSize=11;fontColor=default;labelBackgroundColor=default;endArrow=open;endFill=0;fillColor=#dae8fc;" edge="1" parent="1">
          <mxGeometry relative="1" as="geometry">
            <mxPoint x="439" y="29.83" as="sourcePoint" />
            <mxPoint x="450" y="29.83" as="targetPoint" />
          </mxGeometry>
        </mxCell>
        <mxCell id="kXPvCvS7IW2mLLLtG32y-17" style="edgeStyle=orthogonalEdgeStyle;rounded=0;orthogonalLoop=1;jettySize=auto;html=1;exitX=1;exitY=0.5;exitDx=0;exitDy=0;entryX=0;entryY=0.5;entryDx=0;entryDy=0;strokeColor=#6c8ebf;align=center;verticalAlign=middle;fontFamily=Helvetica;fontSize=11;fontColor=default;labelBackgroundColor=default;endArrow=open;endFill=0;fillColor=#dae8fc;" edge="1" parent="1">
          <mxGeometry relative="1" as="geometry">
            <mxPoint x="439" y="49.83" as="sourcePoint" />
            <mxPoint x="450" y="49.83" as="targetPoint" />
          </mxGeometry>
        </mxCell>
        <mxCell id="kXPvCvS7IW2mLLLtG32y-18" style="edgeStyle=orthogonalEdgeStyle;rounded=0;orthogonalLoop=1;jettySize=auto;html=1;exitX=1;exitY=0.5;exitDx=0;exitDy=0;entryX=0;entryY=0.5;entryDx=0;entryDy=0;endArrow=open;endFill=0;strokeColor=#6c8ebf;align=center;verticalAlign=middle;fontFamily=Helvetica;fontSize=11;fontColor=default;labelBackgroundColor=default;fillColor=#dae8fc;" edge="1" parent="1">
          <mxGeometry relative="1" as="geometry">
            <mxPoint x="439" y="-50.17" as="sourcePoint" />
            <mxPoint x="450" y="-50.17" as="targetPoint" />
          </mxGeometry>
        </mxCell>
        <mxCell id="kXPvCvS7IW2mLLLtG32y-19" style="edgeStyle=orthogonalEdgeStyle;rounded=0;orthogonalLoop=1;jettySize=auto;html=1;exitX=1;exitY=0.5;exitDx=0;exitDy=0;entryX=0;entryY=0.5;entryDx=0;entryDy=0;strokeColor=#6c8ebf;align=center;verticalAlign=middle;fontFamily=Helvetica;fontSize=11;fontColor=default;labelBackgroundColor=default;endArrow=open;endFill=0;fillColor=#dae8fc;" edge="1" parent="1">
          <mxGeometry relative="1" as="geometry">
            <mxPoint x="439" y="-30.17" as="sourcePoint" />
            <mxPoint x="450" y="-30.17" as="targetPoint" />
          </mxGeometry>
        </mxCell>
        <mxCell id="kXPvCvS7IW2mLLLtG32y-20" style="edgeStyle=orthogonalEdgeStyle;rounded=0;orthogonalLoop=1;jettySize=auto;html=1;exitX=1;exitY=0.5;exitDx=0;exitDy=0;entryX=0;entryY=0.5;entryDx=0;entryDy=0;strokeColor=#6c8ebf;align=center;verticalAlign=middle;fontFamily=Helvetica;fontSize=11;fontColor=default;labelBackgroundColor=default;endArrow=open;endFill=0;fillColor=#dae8fc;" edge="1" parent="1">
          <mxGeometry relative="1" as="geometry">
            <mxPoint x="439" y="-10.17" as="sourcePoint" />
            <mxPoint x="450" y="-10.17" as="targetPoint" />
          </mxGeometry>
        </mxCell>
        <mxCell id="kXPvCvS7IW2mLLLtG32y-21" style="edgeStyle=orthogonalEdgeStyle;rounded=0;orthogonalLoop=1;jettySize=auto;html=1;exitX=1;exitY=0.5;exitDx=0;exitDy=0;entryX=0;entryY=0.5;entryDx=0;entryDy=0;strokeColor=#6c8ebf;align=center;verticalAlign=middle;fontFamily=Helvetica;fontSize=11;fontColor=default;labelBackgroundColor=default;endArrow=open;endFill=0;fillColor=#dae8fc;" edge="1" parent="1">
          <mxGeometry relative="1" as="geometry">
            <mxPoint x="439" y="9.83" as="sourcePoint" />
            <mxPoint x="450" y="9.83" as="targetPoint" />
          </mxGeometry>
        </mxCell>
        <mxCell id="kXPvCvS7IW2mLLLtG32y-22" value="" style="endArrow=open;html=1;rounded=0;exitX=1;exitY=0.5;exitDx=0;exitDy=0;entryX=0;entryY=0.5;entryDx=0;entryDy=0;endFill=0;strokeColor=#6c8ebf;align=center;verticalAlign=middle;fontFamily=Helvetica;fontSize=11;fontColor=default;labelBackgroundColor=default;fillColor=#dae8fc;" edge="1" parent="1">
          <mxGeometry width="50" height="50" relative="1" as="geometry">
            <mxPoint x="439" y="-70.17" as="sourcePoint" />
            <mxPoint x="450" y="-70.17" as="targetPoint" />
          </mxGeometry>
        </mxCell>
        <mxCell id="kXPvCvS7IW2mLLLtG32y-23" value="" style="group;strokeColor=default;container=0;" vertex="1" connectable="0" parent="1">
          <mxGeometry x="450" y="-80" width="40" height="20" as="geometry" />
        </mxCell>
        <mxCell id="kXPvCvS7IW2mLLLtG32y-24" value="0" style="rounded=0;whiteSpace=wrap;html=1;strokeColor=default;container=0;" vertex="1" parent="1">
          <mxGeometry x="450" y="-80" width="8" height="20" as="geometry" />
        </mxCell>
        <mxCell id="kXPvCvS7IW2mLLLtG32y-25" value="0" style="rounded=0;whiteSpace=wrap;html=1;strokeColor=default;container=0;" vertex="1" parent="1">
          <mxGeometry x="458" y="-80" width="8" height="20" as="geometry" />
        </mxCell>
        <mxCell id="kXPvCvS7IW2mLLLtG32y-26" value="1" style="rounded=0;whiteSpace=wrap;html=1;strokeColor=default;container=0;" vertex="1" parent="1">
          <mxGeometry x="466" y="-80" width="8" height="20" as="geometry" />
        </mxCell>
        <mxCell id="kXPvCvS7IW2mLLLtG32y-27" value="0" style="rounded=0;whiteSpace=wrap;html=1;strokeColor=default;container=0;" vertex="1" parent="1">
          <mxGeometry x="474" y="-80" width="8" height="20" as="geometry" />
        </mxCell>
        <mxCell id="kXPvCvS7IW2mLLLtG32y-28" value="1" style="rounded=0;whiteSpace=wrap;html=1;strokeColor=default;container=0;" vertex="1" parent="1">
          <mxGeometry x="482" y="-80" width="8" height="20" as="geometry" />
        </mxCell>
        <mxCell id="kXPvCvS7IW2mLLLtG32y-29" value="" style="group;strokeColor=default;container=0;" vertex="1" connectable="0" parent="1">
          <mxGeometry x="450" width="40" height="20" as="geometry" />
        </mxCell>
        <mxCell id="kXPvCvS7IW2mLLLtG32y-30" value="0" style="rounded=0;whiteSpace=wrap;html=1;strokeColor=default;container=0;" vertex="1" parent="1">
          <mxGeometry x="450" width="8" height="20" as="geometry" />
        </mxCell>
        <mxCell id="kXPvCvS7IW2mLLLtG32y-31" value="0" style="rounded=0;whiteSpace=wrap;html=1;strokeColor=default;container=0;" vertex="1" parent="1">
          <mxGeometry x="458" width="8" height="20" as="geometry" />
        </mxCell>
        <mxCell id="kXPvCvS7IW2mLLLtG32y-32" value="1" style="rounded=0;whiteSpace=wrap;html=1;strokeColor=default;container=0;" vertex="1" parent="1">
          <mxGeometry x="466" width="8" height="20" as="geometry" />
        </mxCell>
        <mxCell id="kXPvCvS7IW2mLLLtG32y-33" value="0" style="rounded=0;whiteSpace=wrap;html=1;strokeColor=default;container=0;" vertex="1" parent="1">
          <mxGeometry x="474" width="8" height="20" as="geometry" />
        </mxCell>
        <mxCell id="kXPvCvS7IW2mLLLtG32y-34" value="1" style="rounded=0;whiteSpace=wrap;html=1;strokeColor=default;container=0;" vertex="1" parent="1">
          <mxGeometry x="482" width="8" height="20" as="geometry" />
        </mxCell>
        <mxCell id="kXPvCvS7IW2mLLLtG32y-35" value="" style="group;strokeColor=default;container=0;" vertex="1" connectable="0" parent="1">
          <mxGeometry x="450" y="-20" width="40" height="20" as="geometry" />
        </mxCell>
        <mxCell id="kXPvCvS7IW2mLLLtG32y-36" value="0" style="rounded=0;whiteSpace=wrap;html=1;strokeColor=default;container=0;" vertex="1" parent="1">
          <mxGeometry x="450" y="-20" width="8" height="20" as="geometry" />
        </mxCell>
        <mxCell id="kXPvCvS7IW2mLLLtG32y-37" value="0" style="rounded=0;whiteSpace=wrap;html=1;strokeColor=default;container=0;" vertex="1" parent="1">
          <mxGeometry x="458" y="-20" width="8" height="20" as="geometry" />
        </mxCell>
        <mxCell id="kXPvCvS7IW2mLLLtG32y-38" value="1" style="rounded=0;whiteSpace=wrap;html=1;strokeColor=default;container=0;" vertex="1" parent="1">
          <mxGeometry x="466" y="-20" width="8" height="20" as="geometry" />
        </mxCell>
        <mxCell id="kXPvCvS7IW2mLLLtG32y-39" value="0" style="rounded=0;whiteSpace=wrap;html=1;strokeColor=default;container=0;" vertex="1" parent="1">
          <mxGeometry x="474" y="-20" width="8" height="20" as="geometry" />
        </mxCell>
        <mxCell id="kXPvCvS7IW2mLLLtG32y-40" value="0" style="rounded=0;whiteSpace=wrap;html=1;strokeColor=default;container=0;" vertex="1" parent="1">
          <mxGeometry x="482" y="-20" width="8" height="20" as="geometry" />
        </mxCell>
        <mxCell id="kXPvCvS7IW2mLLLtG32y-41" value="" style="group;strokeColor=default;container=0;" vertex="1" connectable="0" parent="1">
          <mxGeometry x="450" y="-60" width="40" height="20" as="geometry" />
        </mxCell>
        <mxCell id="kXPvCvS7IW2mLLLtG32y-42" value="0" style="rounded=0;whiteSpace=wrap;html=1;strokeColor=default;container=0;" vertex="1" parent="1">
          <mxGeometry x="450" y="-60" width="8" height="20" as="geometry" />
        </mxCell>
        <mxCell id="kXPvCvS7IW2mLLLtG32y-43" value="1" style="rounded=0;whiteSpace=wrap;html=1;strokeColor=default;container=0;" vertex="1" parent="1">
          <mxGeometry x="458" y="-60" width="8" height="20" as="geometry" />
        </mxCell>
        <mxCell id="kXPvCvS7IW2mLLLtG32y-44" value="0" style="rounded=0;whiteSpace=wrap;html=1;strokeColor=default;container=0;" vertex="1" parent="1">
          <mxGeometry x="466" y="-60" width="8" height="20" as="geometry" />
        </mxCell>
        <mxCell id="kXPvCvS7IW2mLLLtG32y-45" value="0" style="rounded=0;whiteSpace=wrap;html=1;strokeColor=default;container=0;" vertex="1" parent="1">
          <mxGeometry x="474" y="-60" width="8" height="20" as="geometry" />
        </mxCell>
        <mxCell id="kXPvCvS7IW2mLLLtG32y-46" value="0" style="rounded=0;whiteSpace=wrap;html=1;strokeColor=default;container=0;" vertex="1" parent="1">
          <mxGeometry x="482" y="-60" width="8" height="20" as="geometry" />
        </mxCell>
        <mxCell id="kXPvCvS7IW2mLLLtG32y-47" value="" style="group;strokeColor=default;container=0;" vertex="1" connectable="0" parent="1">
          <mxGeometry x="450" y="-40" width="40" height="20" as="geometry" />
        </mxCell>
        <mxCell id="kXPvCvS7IW2mLLLtG32y-48" value="1" style="rounded=0;whiteSpace=wrap;html=1;strokeColor=default;container=0;" vertex="1" parent="1">
          <mxGeometry x="450" y="-40" width="8" height="20" as="geometry" />
        </mxCell>
        <mxCell id="kXPvCvS7IW2mLLLtG32y-49" value="0" style="rounded=0;whiteSpace=wrap;html=1;strokeColor=default;container=0;" vertex="1" parent="1">
          <mxGeometry x="458" y="-40" width="8" height="20" as="geometry" />
        </mxCell>
        <mxCell id="kXPvCvS7IW2mLLLtG32y-50" value="0" style="rounded=0;whiteSpace=wrap;html=1;strokeColor=default;container=0;" vertex="1" parent="1">
          <mxGeometry x="466" y="-40" width="8" height="20" as="geometry" />
        </mxCell>
        <mxCell id="kXPvCvS7IW2mLLLtG32y-51" value="0" style="rounded=0;whiteSpace=wrap;html=1;strokeColor=default;container=0;" vertex="1" parent="1">
          <mxGeometry x="474" y="-40" width="8" height="20" as="geometry" />
        </mxCell>
        <mxCell id="kXPvCvS7IW2mLLLtG32y-52" value="1" style="rounded=0;whiteSpace=wrap;html=1;strokeColor=default;container=0;" vertex="1" parent="1">
          <mxGeometry x="482" y="-40" width="8" height="20" as="geometry" />
        </mxCell>
        <mxCell id="kXPvCvS7IW2mLLLtG32y-53" value="" style="group;strokeColor=default;container=0;" vertex="1" connectable="0" parent="1">
          <mxGeometry x="450" y="20" width="40" height="20" as="geometry" />
        </mxCell>
        <mxCell id="kXPvCvS7IW2mLLLtG32y-54" value="0" style="rounded=0;whiteSpace=wrap;html=1;strokeColor=default;container=0;" vertex="1" parent="1">
          <mxGeometry x="450" y="20" width="8" height="20" as="geometry" />
        </mxCell>
        <mxCell id="kXPvCvS7IW2mLLLtG32y-55" value="1" style="rounded=0;whiteSpace=wrap;html=1;strokeColor=default;container=0;" vertex="1" parent="1">
          <mxGeometry x="458" y="20" width="8" height="20" as="geometry" />
        </mxCell>
        <mxCell id="kXPvCvS7IW2mLLLtG32y-56" value="0" style="rounded=0;whiteSpace=wrap;html=1;strokeColor=default;container=0;" vertex="1" parent="1">
          <mxGeometry x="466" y="20" width="8" height="20" as="geometry" />
        </mxCell>
        <mxCell id="kXPvCvS7IW2mLLLtG32y-57" value="1" style="rounded=0;whiteSpace=wrap;html=1;strokeColor=default;container=0;" vertex="1" parent="1">
          <mxGeometry x="474" y="20" width="8" height="20" as="geometry" />
        </mxCell>
        <mxCell id="kXPvCvS7IW2mLLLtG32y-58" value="1" style="rounded=0;whiteSpace=wrap;html=1;strokeColor=default;container=0;" vertex="1" parent="1">
          <mxGeometry x="482" y="20" width="8" height="20" as="geometry" />
        </mxCell>
        <mxCell id="kXPvCvS7IW2mLLLtG32y-59" value="" style="group;strokeColor=default;container=0;" vertex="1" connectable="0" parent="1">
          <mxGeometry x="450" y="40" width="40" height="20" as="geometry" />
        </mxCell>
        <mxCell id="kXPvCvS7IW2mLLLtG32y-60" value="1" style="rounded=0;whiteSpace=wrap;html=1;strokeColor=default;container=0;" vertex="1" parent="1">
          <mxGeometry x="450" y="40" width="8" height="20" as="geometry" />
        </mxCell>
        <mxCell id="kXPvCvS7IW2mLLLtG32y-61" value="1" style="rounded=0;whiteSpace=wrap;html=1;strokeColor=default;container=0;" vertex="1" parent="1">
          <mxGeometry x="458" y="40" width="8" height="20" as="geometry" />
        </mxCell>
        <mxCell id="kXPvCvS7IW2mLLLtG32y-62" value="0" style="rounded=0;whiteSpace=wrap;html=1;strokeColor=default;container=0;" vertex="1" parent="1">
          <mxGeometry x="466" y="40" width="8" height="20" as="geometry" />
        </mxCell>
        <mxCell id="kXPvCvS7IW2mLLLtG32y-63" value="0" style="rounded=0;whiteSpace=wrap;html=1;strokeColor=default;container=0;" vertex="1" parent="1">
          <mxGeometry x="474" y="40" width="8" height="20" as="geometry" />
        </mxCell>
        <mxCell id="kXPvCvS7IW2mLLLtG32y-64" value="0" style="rounded=0;whiteSpace=wrap;html=1;strokeColor=default;container=0;" vertex="1" parent="1">
          <mxGeometry x="482" y="40" width="8" height="20" as="geometry" />
        </mxCell>
        <mxCell id="kXPvCvS7IW2mLLLtG32y-67" value="" style="shape=curlyBracket;whiteSpace=wrap;html=1;rounded=1;flipH=1;labelPosition=right;verticalLabelPosition=middle;align=left;verticalAlign=middle;" vertex="1" parent="1">
          <mxGeometry x="500" y="-70" width="20" height="120" as="geometry" />
        </mxCell>
        <mxCell id="kXPvCvS7IW2mLLLtG32y-117" value="f" style="rounded=0;whiteSpace=wrap;html=1;" vertex="1" parent="1">
          <mxGeometry x="545" y="-60" width="20" height="20" as="geometry" />
        </mxCell>
        <mxCell id="kXPvCvS7IW2mLLLtG32y-118" value="i" style="rounded=0;whiteSpace=wrap;html=1;" vertex="1" parent="1">
          <mxGeometry x="594" y="-60" width="20" height="20" as="geometry" />
        </mxCell>
        <mxCell id="kXPvCvS7IW2mLLLtG32y-119" value="r" style="rounded=0;whiteSpace=wrap;html=1;" vertex="1" parent="1">
          <mxGeometry x="645" y="-60" width="20" height="20" as="geometry" />
        </mxCell>
        <mxCell id="kXPvCvS7IW2mLLLtG32y-120" value="e" style="rounded=0;whiteSpace=wrap;html=1;" vertex="1" parent="1">
          <mxGeometry x="695" y="-60" width="20" height="20" as="geometry" />
        </mxCell>
        <mxCell id="kXPvCvS7IW2mLLLtG32y-121" value="f" style="rounded=0;whiteSpace=wrap;html=1;" vertex="1" parent="1">
          <mxGeometry x="744" y="-60" width="20" height="20" as="geometry" />
        </mxCell>
        <mxCell id="kXPvCvS7IW2mLLLtG32y-122" value="l" style="rounded=0;whiteSpace=wrap;html=1;" vertex="1" parent="1">
          <mxGeometry x="795" y="-60" width="20" height="20" as="geometry" />
        </mxCell>
        <mxCell id="kXPvCvS7IW2mLLLtG32y-124" value="y" style="rounded=0;whiteSpace=wrap;html=1;" vertex="1" parent="1">
          <mxGeometry x="845" y="-60" width="20" height="20" as="geometry" />
        </mxCell>
        <mxCell id="kXPvCvS7IW2mLLLtG32y-126" value="" style="group" vertex="1" connectable="0" parent="1">
          <mxGeometry x="530" y="-20" width="350" height="20" as="geometry" />
        </mxCell>
        <mxCell id="kXPvCvS7IW2mLLLtG32y-68" value="" style="group;strokeColor=default;container=0;" vertex="1" connectable="0" parent="kXPvCvS7IW2mLLLtG32y-126">
          <mxGeometry width="50" height="20" as="geometry" />
        </mxCell>
        <mxCell id="kXPvCvS7IW2mLLLtG32y-69" value="0" style="rounded=0;whiteSpace=wrap;html=1;strokeColor=default;container=0;" vertex="1" parent="kXPvCvS7IW2mLLLtG32y-126">
          <mxGeometry width="10" height="20" as="geometry" />
        </mxCell>
        <mxCell id="kXPvCvS7IW2mLLLtG32y-70" value="0" style="rounded=0;whiteSpace=wrap;html=1;strokeColor=default;container=0;" vertex="1" parent="kXPvCvS7IW2mLLLtG32y-126">
          <mxGeometry x="10" width="10" height="20" as="geometry" />
        </mxCell>
        <mxCell id="kXPvCvS7IW2mLLLtG32y-71" value="1" style="rounded=0;whiteSpace=wrap;html=1;strokeColor=default;container=0;" vertex="1" parent="kXPvCvS7IW2mLLLtG32y-126">
          <mxGeometry x="20" width="10" height="20" as="geometry" />
        </mxCell>
        <mxCell id="kXPvCvS7IW2mLLLtG32y-72" value="0" style="rounded=0;whiteSpace=wrap;html=1;strokeColor=default;container=0;" vertex="1" parent="kXPvCvS7IW2mLLLtG32y-126">
          <mxGeometry x="30" width="10" height="20" as="geometry" />
        </mxCell>
        <mxCell id="kXPvCvS7IW2mLLLtG32y-73" value="1" style="rounded=0;whiteSpace=wrap;html=1;strokeColor=default;container=0;" vertex="1" parent="kXPvCvS7IW2mLLLtG32y-126">
          <mxGeometry x="40" width="10" height="20" as="geometry" />
        </mxCell>
        <mxCell id="kXPvCvS7IW2mLLLtG32y-74" value="" style="group;strokeColor=default;container=0;" vertex="1" connectable="0" parent="kXPvCvS7IW2mLLLtG32y-126">
          <mxGeometry x="50" width="50" height="20" as="geometry" />
        </mxCell>
        <mxCell id="kXPvCvS7IW2mLLLtG32y-75" value="0" style="rounded=0;whiteSpace=wrap;html=1;strokeColor=default;container=0;" vertex="1" parent="kXPvCvS7IW2mLLLtG32y-126">
          <mxGeometry x="50" width="10" height="20" as="geometry" />
        </mxCell>
        <mxCell id="kXPvCvS7IW2mLLLtG32y-76" value="1" style="rounded=0;whiteSpace=wrap;html=1;strokeColor=default;container=0;" vertex="1" parent="kXPvCvS7IW2mLLLtG32y-126">
          <mxGeometry x="60" width="10" height="20" as="geometry" />
        </mxCell>
        <mxCell id="kXPvCvS7IW2mLLLtG32y-77" value="0" style="rounded=0;whiteSpace=wrap;html=1;strokeColor=default;container=0;" vertex="1" parent="kXPvCvS7IW2mLLLtG32y-126">
          <mxGeometry x="70" width="10" height="20" as="geometry" />
        </mxCell>
        <mxCell id="kXPvCvS7IW2mLLLtG32y-78" value="0" style="rounded=0;whiteSpace=wrap;html=1;strokeColor=default;container=0;" vertex="1" parent="kXPvCvS7IW2mLLLtG32y-126">
          <mxGeometry x="80" width="10" height="20" as="geometry" />
        </mxCell>
        <mxCell id="kXPvCvS7IW2mLLLtG32y-79" value="0" style="rounded=0;whiteSpace=wrap;html=1;strokeColor=default;container=0;" vertex="1" parent="kXPvCvS7IW2mLLLtG32y-126">
          <mxGeometry x="90" width="10" height="20" as="geometry" />
        </mxCell>
        <mxCell id="kXPvCvS7IW2mLLLtG32y-80" value="" style="group;strokeColor=default;container=0;" vertex="1" connectable="0" parent="kXPvCvS7IW2mLLLtG32y-126">
          <mxGeometry x="100" width="50" height="20" as="geometry" />
        </mxCell>
        <mxCell id="kXPvCvS7IW2mLLLtG32y-81" value="1" style="rounded=0;whiteSpace=wrap;html=1;strokeColor=default;container=0;" vertex="1" parent="kXPvCvS7IW2mLLLtG32y-126">
          <mxGeometry x="100" width="10" height="20" as="geometry" />
        </mxCell>
        <mxCell id="kXPvCvS7IW2mLLLtG32y-82" value="0" style="rounded=0;whiteSpace=wrap;html=1;strokeColor=default;container=0;" vertex="1" parent="kXPvCvS7IW2mLLLtG32y-126">
          <mxGeometry x="110" width="10" height="20" as="geometry" />
        </mxCell>
        <mxCell id="kXPvCvS7IW2mLLLtG32y-83" value="0" style="rounded=0;whiteSpace=wrap;html=1;strokeColor=default;container=0;" vertex="1" parent="kXPvCvS7IW2mLLLtG32y-126">
          <mxGeometry x="120" width="10" height="20" as="geometry" />
        </mxCell>
        <mxCell id="kXPvCvS7IW2mLLLtG32y-84" value="0" style="rounded=0;whiteSpace=wrap;html=1;strokeColor=default;container=0;" vertex="1" parent="kXPvCvS7IW2mLLLtG32y-126">
          <mxGeometry x="130" width="10" height="20" as="geometry" />
        </mxCell>
        <mxCell id="kXPvCvS7IW2mLLLtG32y-85" value="1" style="rounded=0;whiteSpace=wrap;html=1;strokeColor=default;container=0;" vertex="1" parent="kXPvCvS7IW2mLLLtG32y-126">
          <mxGeometry x="140" width="10" height="20" as="geometry" />
        </mxCell>
        <mxCell id="kXPvCvS7IW2mLLLtG32y-86" value="" style="group;strokeColor=default;container=0;" vertex="1" connectable="0" parent="kXPvCvS7IW2mLLLtG32y-126">
          <mxGeometry x="150" width="50" height="20" as="geometry" />
        </mxCell>
        <mxCell id="kXPvCvS7IW2mLLLtG32y-87" value="0" style="rounded=0;whiteSpace=wrap;html=1;strokeColor=default;container=0;" vertex="1" parent="kXPvCvS7IW2mLLLtG32y-126">
          <mxGeometry x="150" width="10" height="20" as="geometry" />
        </mxCell>
        <mxCell id="kXPvCvS7IW2mLLLtG32y-88" value="0" style="rounded=0;whiteSpace=wrap;html=1;strokeColor=default;container=0;" vertex="1" parent="kXPvCvS7IW2mLLLtG32y-126">
          <mxGeometry x="160" width="10" height="20" as="geometry" />
        </mxCell>
        <mxCell id="kXPvCvS7IW2mLLLtG32y-89" value="1" style="rounded=0;whiteSpace=wrap;html=1;strokeColor=default;container=0;" vertex="1" parent="kXPvCvS7IW2mLLLtG32y-126">
          <mxGeometry x="170" width="10" height="20" as="geometry" />
        </mxCell>
        <mxCell id="kXPvCvS7IW2mLLLtG32y-90" value="0" style="rounded=0;whiteSpace=wrap;html=1;strokeColor=default;container=0;" vertex="1" parent="kXPvCvS7IW2mLLLtG32y-126">
          <mxGeometry x="180" width="10" height="20" as="geometry" />
        </mxCell>
        <mxCell id="kXPvCvS7IW2mLLLtG32y-91" value="0" style="rounded=0;whiteSpace=wrap;html=1;strokeColor=default;container=0;" vertex="1" parent="kXPvCvS7IW2mLLLtG32y-126">
          <mxGeometry x="190" width="10" height="20" as="geometry" />
        </mxCell>
        <mxCell id="kXPvCvS7IW2mLLLtG32y-92" value="" style="group;strokeColor=default;container=0;" vertex="1" connectable="0" parent="kXPvCvS7IW2mLLLtG32y-126">
          <mxGeometry x="200" width="50" height="20" as="geometry" />
        </mxCell>
        <mxCell id="kXPvCvS7IW2mLLLtG32y-93" value="0" style="rounded=0;whiteSpace=wrap;html=1;strokeColor=default;container=0;" vertex="1" parent="kXPvCvS7IW2mLLLtG32y-126">
          <mxGeometry x="200" width="10" height="20" as="geometry" />
        </mxCell>
        <mxCell id="kXPvCvS7IW2mLLLtG32y-94" value="0" style="rounded=0;whiteSpace=wrap;html=1;strokeColor=default;container=0;" vertex="1" parent="kXPvCvS7IW2mLLLtG32y-126">
          <mxGeometry x="210" width="10" height="20" as="geometry" />
        </mxCell>
        <mxCell id="kXPvCvS7IW2mLLLtG32y-95" value="1" style="rounded=0;whiteSpace=wrap;html=1;strokeColor=default;container=0;" vertex="1" parent="kXPvCvS7IW2mLLLtG32y-126">
          <mxGeometry x="220" width="10" height="20" as="geometry" />
        </mxCell>
        <mxCell id="kXPvCvS7IW2mLLLtG32y-96" value="0" style="rounded=0;whiteSpace=wrap;html=1;strokeColor=default;container=0;" vertex="1" parent="kXPvCvS7IW2mLLLtG32y-126">
          <mxGeometry x="230" width="10" height="20" as="geometry" />
        </mxCell>
        <mxCell id="kXPvCvS7IW2mLLLtG32y-97" value="1" style="rounded=0;whiteSpace=wrap;html=1;strokeColor=default;container=0;" vertex="1" parent="kXPvCvS7IW2mLLLtG32y-126">
          <mxGeometry x="240" width="10" height="20" as="geometry" />
        </mxCell>
        <mxCell id="kXPvCvS7IW2mLLLtG32y-98" value="" style="group;strokeColor=default;container=0;" vertex="1" connectable="0" parent="kXPvCvS7IW2mLLLtG32y-126">
          <mxGeometry x="250" width="50" height="20" as="geometry" />
        </mxCell>
        <mxCell id="kXPvCvS7IW2mLLLtG32y-99" value="0" style="rounded=0;whiteSpace=wrap;html=1;strokeColor=default;container=0;" vertex="1" parent="kXPvCvS7IW2mLLLtG32y-126">
          <mxGeometry x="250" width="10" height="20" as="geometry" />
        </mxCell>
        <mxCell id="kXPvCvS7IW2mLLLtG32y-100" value="1" style="rounded=0;whiteSpace=wrap;html=1;strokeColor=default;container=0;" vertex="1" parent="kXPvCvS7IW2mLLLtG32y-126">
          <mxGeometry x="260" width="10" height="20" as="geometry" />
        </mxCell>
        <mxCell id="kXPvCvS7IW2mLLLtG32y-101" value="0" style="rounded=0;whiteSpace=wrap;html=1;strokeColor=default;container=0;" vertex="1" parent="kXPvCvS7IW2mLLLtG32y-126">
          <mxGeometry x="270" width="10" height="20" as="geometry" />
        </mxCell>
        <mxCell id="kXPvCvS7IW2mLLLtG32y-102" value="1" style="rounded=0;whiteSpace=wrap;html=1;strokeColor=default;container=0;" vertex="1" parent="kXPvCvS7IW2mLLLtG32y-126">
          <mxGeometry x="280" width="10" height="20" as="geometry" />
        </mxCell>
        <mxCell id="kXPvCvS7IW2mLLLtG32y-103" value="1" style="rounded=0;whiteSpace=wrap;html=1;strokeColor=default;container=0;" vertex="1" parent="kXPvCvS7IW2mLLLtG32y-126">
          <mxGeometry x="290" width="10" height="20" as="geometry" />
        </mxCell>
        <mxCell id="kXPvCvS7IW2mLLLtG32y-104" value="" style="group;strokeColor=default;container=0;" vertex="1" connectable="0" parent="kXPvCvS7IW2mLLLtG32y-126">
          <mxGeometry x="300" width="50" height="20" as="geometry" />
        </mxCell>
        <mxCell id="kXPvCvS7IW2mLLLtG32y-105" value="1" style="rounded=0;whiteSpace=wrap;html=1;strokeColor=default;container=0;" vertex="1" parent="kXPvCvS7IW2mLLLtG32y-126">
          <mxGeometry x="300" width="10" height="20" as="geometry" />
        </mxCell>
        <mxCell id="kXPvCvS7IW2mLLLtG32y-106" value="1" style="rounded=0;whiteSpace=wrap;html=1;strokeColor=default;container=0;" vertex="1" parent="kXPvCvS7IW2mLLLtG32y-126">
          <mxGeometry x="310" width="10" height="20" as="geometry" />
        </mxCell>
        <mxCell id="kXPvCvS7IW2mLLLtG32y-107" value="0" style="rounded=0;whiteSpace=wrap;html=1;strokeColor=default;container=0;" vertex="1" parent="kXPvCvS7IW2mLLLtG32y-126">
          <mxGeometry x="320" width="10" height="20" as="geometry" />
        </mxCell>
        <mxCell id="kXPvCvS7IW2mLLLtG32y-108" value="0" style="rounded=0;whiteSpace=wrap;html=1;strokeColor=default;container=0;" vertex="1" parent="kXPvCvS7IW2mLLLtG32y-126">
          <mxGeometry x="330" width="10" height="20" as="geometry" />
        </mxCell>
        <mxCell id="kXPvCvS7IW2mLLLtG32y-109" value="0" style="rounded=0;whiteSpace=wrap;html=1;strokeColor=default;container=0;" vertex="1" parent="kXPvCvS7IW2mLLLtG32y-126">
          <mxGeometry x="340" width="10" height="20" as="geometry" />
        </mxCell>
        <mxCell id="kXPvCvS7IW2mLLLtG32y-110" value="" style="shape=curlyBracket;whiteSpace=wrap;html=1;rounded=1;flipH=1;labelPosition=right;verticalLabelPosition=middle;align=left;verticalAlign=middle;direction=south;fillColor=#dae8fc;strokeColor=#6c8ebf;" vertex="1" parent="1">
          <mxGeometry x="530" y="-40" width="50" height="20" as="geometry" />
        </mxCell>
        <mxCell id="kXPvCvS7IW2mLLLtG32y-111" value="" style="shape=curlyBracket;whiteSpace=wrap;html=1;rounded=1;flipH=1;labelPosition=right;verticalLabelPosition=middle;align=left;verticalAlign=middle;direction=south;fillColor=#dae8fc;strokeColor=#6c8ebf;" vertex="1" parent="1">
          <mxGeometry x="580" y="-40" width="50" height="20" as="geometry" />
        </mxCell>
        <mxCell id="kXPvCvS7IW2mLLLtG32y-112" value="" style="shape=curlyBracket;whiteSpace=wrap;html=1;rounded=1;flipH=1;labelPosition=right;verticalLabelPosition=middle;align=left;verticalAlign=middle;direction=south;fillColor=#dae8fc;strokeColor=#6c8ebf;" vertex="1" parent="1">
          <mxGeometry x="630" y="-40" width="50" height="20" as="geometry" />
        </mxCell>
        <mxCell id="kXPvCvS7IW2mLLLtG32y-113" value="" style="shape=curlyBracket;whiteSpace=wrap;html=1;rounded=1;flipH=1;labelPosition=right;verticalLabelPosition=middle;align=left;verticalAlign=middle;direction=south;fillColor=#dae8fc;strokeColor=#6c8ebf;" vertex="1" parent="1">
          <mxGeometry x="680" y="-40" width="50" height="20" as="geometry" />
        </mxCell>
        <mxCell id="kXPvCvS7IW2mLLLtG32y-114" value="" style="shape=curlyBracket;whiteSpace=wrap;html=1;rounded=1;flipH=1;labelPosition=right;verticalLabelPosition=middle;align=left;verticalAlign=middle;direction=south;fillColor=#dae8fc;strokeColor=#6c8ebf;" vertex="1" parent="1">
          <mxGeometry x="730" y="-40" width="50" height="20" as="geometry" />
        </mxCell>
        <mxCell id="kXPvCvS7IW2mLLLtG32y-115" value="" style="shape=curlyBracket;whiteSpace=wrap;html=1;rounded=1;flipH=1;labelPosition=right;verticalLabelPosition=middle;align=left;verticalAlign=middle;direction=south;fillColor=#dae8fc;strokeColor=#6c8ebf;" vertex="1" parent="1">
          <mxGeometry x="780" y="-40" width="50" height="20" as="geometry" />
        </mxCell>
        <mxCell id="kXPvCvS7IW2mLLLtG32y-116" value="" style="shape=curlyBracket;whiteSpace=wrap;html=1;rounded=1;flipH=1;labelPosition=right;verticalLabelPosition=middle;align=left;verticalAlign=middle;direction=south;fillColor=#dae8fc;strokeColor=#6c8ebf;" vertex="1" parent="1">
          <mxGeometry x="830" y="-40" width="50" height="20" as="geometry" />
        </mxCell>
        <mxCell id="kXPvCvS7IW2mLLLtG32y-128" value="" style="shape=curlyBracket;whiteSpace=wrap;html=1;rounded=1;flipH=1;labelPosition=right;verticalLabelPosition=middle;align=left;verticalAlign=middle;direction=north;fillColor=#fff2cc;strokeColor=#d6b656;" vertex="1" parent="1">
          <mxGeometry x="530" width="80" height="20" as="geometry" />
        </mxCell>
        <mxCell id="kXPvCvS7IW2mLLLtG32y-129" value="" style="shape=curlyBracket;whiteSpace=wrap;html=1;rounded=1;flipH=1;labelPosition=right;verticalLabelPosition=middle;align=left;verticalAlign=middle;direction=north;fillColor=#fff2cc;strokeColor=#d6b656;" vertex="1" parent="1">
          <mxGeometry x="610" width="80" height="20" as="geometry" />
        </mxCell>
        <mxCell id="kXPvCvS7IW2mLLLtG32y-130" value="" style="shape=curlyBracket;whiteSpace=wrap;html=1;rounded=1;flipH=1;labelPosition=right;verticalLabelPosition=middle;align=left;verticalAlign=middle;direction=north;fillColor=#fff2cc;strokeColor=#d6b656;" vertex="1" parent="1">
          <mxGeometry x="690" width="80" height="20" as="geometry" />
        </mxCell>
        <mxCell id="kXPvCvS7IW2mLLLtG32y-131" value="" style="shape=curlyBracket;whiteSpace=wrap;html=1;rounded=1;flipH=1;labelPosition=right;verticalLabelPosition=middle;align=left;verticalAlign=middle;direction=north;fillColor=#fff2cc;strokeColor=#d6b656;" vertex="1" parent="1">
          <mxGeometry x="770" width="80" height="20" as="geometry" />
        </mxCell>
        <mxCell id="kXPvCvS7IW2mLLLtG32y-132" value="" style="shape=curlyBracket;whiteSpace=wrap;html=1;rounded=1;flipH=1;labelPosition=right;verticalLabelPosition=middle;align=left;verticalAlign=middle;direction=north;fillColor=#fff2cc;strokeColor=#d6b656;" vertex="1" parent="1">
          <mxGeometry x="850" width="80" height="20" as="geometry" />
        </mxCell>
        <mxCell id="kXPvCvS7IW2mLLLtG32y-133" value="" style="rounded=0;whiteSpace=wrap;html=1;strokeColor=#666666;container=0;fillColor=#f5f5f5;fontColor=#333333;" vertex="1" parent="1">
          <mxGeometry x="880" y="-20" width="10" height="20" as="geometry" />
        </mxCell>
        <mxCell id="kXPvCvS7IW2mLLLtG32y-134" value="" style="rounded=0;whiteSpace=wrap;html=1;strokeColor=#666666;container=0;fillColor=#f5f5f5;fontColor=#333333;" vertex="1" parent="1">
          <mxGeometry x="890" y="-20" width="10" height="20" as="geometry" />
        </mxCell>
        <mxCell id="kXPvCvS7IW2mLLLtG32y-135" value="" style="rounded=0;whiteSpace=wrap;html=1;strokeColor=#666666;container=0;fillColor=#f5f5f5;fontColor=#333333;" vertex="1" parent="1">
          <mxGeometry x="900" y="-20" width="10" height="20" as="geometry" />
        </mxCell>
        <mxCell id="kXPvCvS7IW2mLLLtG32y-136" value="" style="rounded=0;whiteSpace=wrap;html=1;strokeColor=#666666;container=0;fillColor=#f5f5f5;fontColor=#333333;" vertex="1" parent="1">
          <mxGeometry x="910" y="-20" width="10" height="20" as="geometry" />
        </mxCell>
        <mxCell id="kXPvCvS7IW2mLLLtG32y-137" value="" style="rounded=0;whiteSpace=wrap;html=1;strokeColor=#666666;container=0;fillColor=#f5f5f5;fontColor=#333333;" vertex="1" parent="1">
          <mxGeometry x="920" y="-20" width="10" height="20" as="geometry" />
        </mxCell>
        <mxCell id="kXPvCvS7IW2mLLLtG32y-138" value="1st byte" style="rounded=0;whiteSpace=wrap;html=1;fontSize=5;verticalAlign=middle;align=center;" vertex="1" parent="1">
          <mxGeometry x="557.5" y="20" width="25" height="10" as="geometry" />
        </mxCell>
        <mxCell id="kXPvCvS7IW2mLLLtG32y-139" value="2nd byte" style="rounded=0;whiteSpace=wrap;html=1;fontSize=5;verticalAlign=middle;align=center;" vertex="1" parent="1">
          <mxGeometry x="637.5" y="20" width="25" height="10" as="geometry" />
        </mxCell>
        <mxCell id="kXPvCvS7IW2mLLLtG32y-140" value="3rd byte" style="rounded=0;whiteSpace=wrap;html=1;fontSize=5;verticalAlign=middle;align=center;" vertex="1" parent="1">
          <mxGeometry x="717.5" y="20" width="25" height="10" as="geometry" />
        </mxCell>
        <mxCell id="kXPvCvS7IW2mLLLtG32y-141" value="4th byte" style="rounded=0;whiteSpace=wrap;html=1;fontSize=5;verticalAlign=middle;align=center;" vertex="1" parent="1">
          <mxGeometry x="797.5" y="20" width="25" height="10" as="geometry" />
        </mxCell>
        <mxCell id="kXPvCvS7IW2mLLLtG32y-142" value="5th byte" style="rounded=0;whiteSpace=wrap;html=1;fontSize=5;verticalAlign=middle;align=center;" vertex="1" parent="1">
          <mxGeometry x="877.5" y="20" width="25" height="10" as="geometry" />
        </mxCell>
      </root>
    </mxGraphModel>
  </diagram>
</mxfile>
